<svg width="66" height="53" viewBox="0 0 66 53" fill="none" xmlns="http://www.w3.org/2000/svg">
<mask id="mask0_71_639" style="mask-type:luminance" maskUnits="userSpaceOnUse" x="16" y="9" width="34" height="34">
<path d="M16.2124 9.84286H49.8017V42.4H16.2124V9.84286Z" fill="white"/>
</mask>
<g mask="url(#mask0_71_639)">
<path d="M48.5873 29.4004C48.2313 29.4024 47.8886 29.3373 47.5602 29.2042C47.2317 29.0721 46.9432 28.8828 46.6957 28.6364C46.4665 28.4343 46.2199 28.2539 45.955 28.0961C45.691 27.9374 45.4148 27.8043 45.1253 27.6959C44.8347 27.5874 44.537 27.5056 44.2321 27.4504C43.9262 27.3952 43.6183 27.3676 43.3073 27.3676C42.9963 27.3676 42.6883 27.3952 42.3824 27.4504C42.0775 27.5056 41.7798 27.5874 41.4903 27.6959C41.1998 27.8043 40.9235 27.9374 40.6596 28.0961C40.3956 28.2539 40.1491 28.4343 39.9189 28.6364L39.8698 28.6738C38.1121 22.0794 29.5429 10.9855 29.1624 10.4965C29.104 10.4285 29.0386 10.3673 28.967 10.3131C28.8943 10.2589 28.8166 10.2126 28.7337 10.1751C28.6508 10.1376 28.5649 10.1091 28.4749 10.0893C28.3859 10.0696 28.2948 10.0607 28.2027 10.0607C28.1117 10.0607 28.0206 10.0696 27.9316 10.0893C27.8416 10.1091 27.7556 10.1376 27.6728 10.1751C27.5899 10.2126 27.5122 10.2589 27.4395 10.3131C27.3679 10.3673 27.3024 10.4285 27.2441 10.4965C26.1147 11.9526 16.2124 24.8763 16.2124 30.8329C16.2124 31.3534 16.2492 31.872 16.3219 32.3886C16.3945 32.9042 16.503 33.4129 16.6462 33.9157C16.7904 34.4175 16.9695 34.9075 17.1823 35.3866C17.3951 35.8647 17.6406 36.3271 17.9179 36.7737C18.1961 37.2213 18.5041 37.6472 18.8417 38.0543C19.1793 38.4605 19.5435 38.844 19.9353 39.2029C20.3261 39.5617 20.7415 39.8939 21.1794 40.1986C21.6173 40.5042 22.0746 40.7793 22.5513 41.0247C23.0281 41.2702 23.5191 41.4841 24.0256 41.6655C24.532 41.8469 25.0496 41.9938 25.5765 42.1082C26.1044 42.2226 26.6364 42.3014 27.1756 42.3468C27.7137 42.3911 28.2529 42.401 28.793 42.3754C29.3322 42.3497 29.8683 42.2886 30.3993 42.194C30.9302 42.0983 31.453 41.9692 31.9656 41.8055C32.4791 41.6419 32.9784 41.4457 33.4644 41.218C33.9493 40.9892 34.4168 40.73 34.866 40.4411C34.9314 40.3987 34.9928 40.3504 35.0481 40.2972C35.1033 40.2429 35.1534 40.1848 35.1974 40.1217C35.2404 40.0586 35.2772 39.9916 35.3079 39.9216C35.3376 39.8516 35.3601 39.7796 35.3754 39.7047C35.3908 39.6307 35.399 39.5548 35.3979 39.4789C35.3979 39.403 35.3908 39.3281 35.3754 39.2541C35.3601 39.1792 35.3366 39.1072 35.3069 39.0372C35.2762 38.9672 35.2394 38.9002 35.1954 38.8371C35.1514 38.774 35.1023 38.7158 35.046 38.6626C34.9908 38.6094 34.9304 38.5611 34.8639 38.5187C34.7984 38.4773 34.7299 38.4418 34.6572 38.4122C34.5846 38.3836 34.5089 38.3619 34.4322 38.3471C34.3544 38.3323 34.2767 38.3245 34.1979 38.3245C34.1191 38.3254 34.0414 38.3323 33.9636 38.3471C33.8869 38.3619 33.8122 38.3846 33.7396 38.4132C33.6659 38.4428 33.5974 38.4783 33.5319 38.5206C33.1728 38.7513 32.7983 38.9584 32.4096 39.1417C32.0218 39.3241 31.6218 39.4809 31.2116 39.611C30.8013 39.7421 30.3829 39.8456 29.9583 39.9216C29.5327 39.9975 29.1051 40.0458 28.6733 40.0665C28.2416 40.0872 27.8099 40.0793 27.3792 40.0438C26.9485 40.0073 26.5229 39.9442 26.1003 39.8525C25.6788 39.7618 25.2655 39.6435 24.8604 39.4986C24.4552 39.3527 24.0614 39.1822 23.6808 38.986C23.2992 38.7898 22.9339 38.569 22.583 38.3254C22.2331 38.0809 21.9006 37.8158 21.5876 37.5279C21.2745 37.241 20.983 36.9344 20.7129 36.6091C20.4428 36.2837 20.1972 35.9426 19.9752 35.5857C19.7522 35.2279 19.5568 34.8582 19.386 34.4747C19.2161 34.0921 19.0729 33.6998 18.9583 33.2985C18.8427 32.8973 18.7557 32.4901 18.6974 32.077C18.6401 31.664 18.6105 31.2499 18.6105 30.8329C18.6105 26.8618 24.8358 17.6726 28.2027 13.1544C30.5282 16.2924 36.3566 24.4987 37.572 29.36C37.0226 29.2535 36.5469 29.013 36.1438 28.6384C35.9146 28.4362 35.668 28.2558 35.4041 28.0981C35.1401 27.9394 34.8639 27.8063 34.5744 27.6978C34.2849 27.5894 33.9871 27.5076 33.6812 27.4524C33.3764 27.3962 33.0684 27.3686 32.7574 27.3686C32.4464 27.3686 32.1385 27.3962 31.8326 27.4524C31.5277 27.5076 31.23 27.5894 30.9405 27.6978C30.6509 27.8063 30.3747 27.9394 30.1107 28.0981C29.8468 28.2558 29.6002 28.4362 29.3711 28.6384C29.1235 28.8838 28.836 29.0731 28.5086 29.2052C28.1812 29.3373 27.8406 29.4034 27.4845 29.4014C27.4058 29.4014 27.328 29.4083 27.2513 29.4231C27.1735 29.4379 27.0988 29.4606 27.0262 29.4892C26.9536 29.5187 26.884 29.5542 26.8185 29.5956C26.753 29.638 26.6927 29.6863 26.6374 29.7396C26.5812 29.7938 26.5321 29.8519 26.4881 29.915C26.4441 29.9781 26.4072 30.0442 26.3776 30.1142C26.3469 30.1852 26.3244 30.2571 26.309 30.3311C26.2937 30.406 26.2855 30.4809 26.2855 30.5568C26.2855 30.6328 26.2937 30.7077 26.309 30.7826C26.3244 30.8565 26.3469 30.9285 26.3776 30.9995C26.4072 31.0695 26.4441 31.1355 26.4881 31.1986C26.5321 31.2617 26.5812 31.3199 26.6374 31.3741C26.6927 31.4274 26.753 31.4757 26.8185 31.5181C26.884 31.5595 26.9536 31.595 27.0262 31.6245C27.0988 31.6531 27.1735 31.6758 27.2513 31.6906C27.328 31.7054 27.4058 31.7123 27.4845 31.7123C28.1127 31.7182 28.7194 31.6107 29.3046 31.3909C29.8898 31.171 30.4115 30.8546 30.8699 30.4415C30.9926 30.3202 31.1277 30.2128 31.2729 30.1171C31.4182 30.0225 31.5717 29.9426 31.7344 29.8766C31.896 29.8115 32.0628 29.7622 32.2357 29.7287C32.4075 29.6952 32.5814 29.6784 32.7574 29.6784C32.9334 29.6784 33.1073 29.6952 33.2792 29.7287C33.4511 29.7622 33.6188 29.8115 33.7805 29.8766C33.9431 29.9426 34.0966 30.0225 34.2419 30.1171C34.3872 30.2128 34.5212 30.3202 34.645 30.4415C34.8741 30.6436 35.1207 30.824 35.3846 30.9817C35.6486 31.1405 35.9248 31.2736 36.2144 31.382C36.5049 31.4905 36.8016 31.5723 37.1075 31.6275C37.4134 31.6827 37.7213 31.7103 38.0323 31.7103C38.3423 31.7103 38.6513 31.6827 38.9562 31.6275C39.2621 31.5723 39.5598 31.4905 39.8493 31.382C40.1388 31.2736 40.4161 31.1405 40.68 30.9817C40.944 30.824 41.1905 30.6436 41.4197 30.4415C41.5425 30.3202 41.6775 30.2128 41.8228 30.1171C41.9691 30.0225 42.1236 29.9417 42.2852 29.8766C42.4479 29.8105 42.6157 29.7612 42.7875 29.7277C42.9604 29.6942 43.1344 29.6775 43.3114 29.6775C43.4873 29.6775 43.6612 29.6942 43.8341 29.7277C44.006 29.7612 44.1738 29.8105 44.3365 29.8766C44.4991 29.9417 44.6526 30.0225 44.7989 30.1171C44.9442 30.2128 45.0792 30.3202 45.202 30.4415C45.6613 30.8536 46.1831 31.17 46.7683 31.3899C47.3535 31.6088 47.9602 31.7162 48.5873 31.7113C48.6661 31.7113 48.7438 31.7034 48.8216 31.6886C48.8983 31.6738 48.974 31.6521 49.0467 31.6235C49.1193 31.594 49.1878 31.5585 49.2533 31.5161C49.3188 31.4747 49.3792 31.4264 49.4354 31.3731C49.4907 31.3189 49.5408 31.2607 49.5848 31.1977C49.6278 31.1346 49.6646 31.0675 49.6953 30.9975C49.725 30.9275 49.7485 30.8556 49.7638 30.7806C49.7792 30.7067 49.7863 30.6318 49.7863 30.5559C49.7863 30.4799 49.7792 30.405 49.7638 30.3301C49.7485 30.2562 49.725 30.1832 49.6953 30.1132C49.6646 30.0432 49.6278 29.9772 49.5848 29.9141C49.5408 29.851 49.4907 29.7918 49.4354 29.7386C49.3792 29.6853 49.3188 29.637 49.2533 29.5946C49.1878 29.5532 49.1193 29.5168 49.0467 29.4882C48.974 29.4596 48.8983 29.4369 48.8216 29.4221C48.7438 29.4073 48.6661 29.4004 48.5873 29.4004Z" fill="#F1F1F4"/>
</g>
<mask id="mask1_71_639" style="mask-type:luminance" maskUnits="userSpaceOnUse" x="26" y="32" width="24" height="5">
<path d="M26.1904 32.0524H49.8018V36.5952H26.1904V32.0524Z" fill="white"/>
</mask>
<g mask="url(#mask1_71_639)">
<path d="M48.5873 34.1611C48.2313 34.1631 47.8886 34.0971 47.5602 33.965C47.2318 33.8319 46.9433 33.6426 46.6957 33.3971C46.4665 33.195 46.22 33.0146 45.955 32.8559C45.691 32.6981 45.4148 32.565 45.1253 32.4566C44.8347 32.3472 44.537 32.2653 44.2322 32.2101C43.9263 32.1549 43.6183 32.1273 43.3073 32.1273C42.9963 32.1273 42.6883 32.1549 42.3825 32.2101C42.0776 32.2653 41.7799 32.3472 41.4903 32.4566C41.1998 32.565 40.9236 32.6981 40.6596 32.8559C40.3957 33.0146 40.1491 33.195 39.9189 33.3971C39.7961 33.5184 39.6621 33.6258 39.5158 33.7214C39.3705 33.8161 39.2161 33.8969 39.0544 33.962C38.8918 34.028 38.725 34.0773 38.5521 34.1109C38.3802 34.1444 38.2053 34.1611 38.0293 34.1611C37.8533 34.1611 37.6794 34.1444 37.5075 34.1109C37.3346 34.0773 37.1669 34.028 37.0052 33.962C36.8426 33.8969 36.6891 33.8161 36.5428 33.7214C36.3975 33.6258 36.2635 33.5184 36.1397 33.3971C35.9105 33.195 35.664 33.0146 35.4011 32.8559C35.1371 32.6981 34.8599 32.564 34.5703 32.4556C34.2808 32.3472 33.9831 32.2653 33.6782 32.2101C33.3723 32.1549 33.0644 32.1273 32.7534 32.1273C32.4434 32.1273 32.1344 32.1549 31.8295 32.2101C31.5236 32.2653 31.2269 32.3472 30.9374 32.4556C30.6469 32.564 30.3706 32.6981 30.1067 32.8559C29.8427 33.0146 29.5962 33.195 29.368 33.3971C29.1205 33.6426 28.833 33.8309 28.5056 33.964C28.1782 34.0961 27.8365 34.1611 27.4815 34.1592C27.4027 34.1592 27.325 34.1671 27.2472 34.1818C27.1705 34.1966 27.0948 34.2183 27.0221 34.2479C26.9495 34.2765 26.881 34.312 26.8155 34.3544C26.75 34.3968 26.6897 34.4441 26.6334 34.4983C26.5781 34.5515 26.528 34.6097 26.484 34.6728C26.441 34.7359 26.4042 34.8029 26.3735 34.8729C26.3439 34.9429 26.3203 35.0149 26.305 35.0898C26.2896 35.1638 26.2825 35.2387 26.2825 35.3146C26.2825 35.3905 26.2896 35.4664 26.305 35.5404C26.3203 35.6153 26.3439 35.6873 26.3735 35.7573C26.4042 35.8272 26.441 35.8943 26.484 35.9574C26.528 36.0205 26.5781 36.0786 26.6334 36.1319C26.6897 36.1861 26.75 36.2334 26.8155 36.2758C26.881 36.3182 26.9495 36.3537 27.0221 36.3823C27.0948 36.4119 27.1705 36.4336 27.2472 36.4483C27.325 36.4631 27.4027 36.47 27.4815 36.47C28.1097 36.4759 28.7153 36.3685 29.3005 36.1486C29.8857 35.9298 30.4075 35.6133 30.8668 35.1993C30.9896 35.079 31.1236 34.9705 31.2689 34.8759C31.4142 34.7803 31.5687 34.7004 31.7303 34.6353C31.8919 34.5693 32.0597 34.52 32.2316 34.4865C32.4045 34.453 32.5784 34.4362 32.7534 34.4362C32.9293 34.4362 33.1032 34.453 33.2761 34.4865C33.448 34.52 33.6148 34.5693 33.7774 34.6353C33.9391 34.7004 34.0926 34.7803 34.2378 34.8759C34.3841 34.9705 34.5181 35.079 34.6409 35.1993C34.8701 35.4014 35.1166 35.5818 35.3806 35.7405C35.6445 35.8982 35.9218 36.0313 36.2113 36.1398C36.5008 36.2492 36.7986 36.331 37.1045 36.3862C37.4093 36.4414 37.7173 36.469 38.0283 36.469C38.3393 36.469 38.6472 36.4414 38.9531 36.3862C39.258 36.331 39.5557 36.2492 39.8453 36.1398C40.1358 36.0313 40.412 35.8982 40.676 35.7405C40.9399 35.5818 41.1865 35.4014 41.4157 35.1993C41.5394 35.079 41.6735 34.9705 41.8198 34.8759C41.965 34.7803 42.1195 34.7004 42.2822 34.6344C42.4438 34.5693 42.6116 34.519 42.7845 34.4855C42.9574 34.453 43.1313 34.4362 43.3073 34.4362C43.4833 34.4362 43.6582 34.453 43.8301 34.4855C44.003 34.519 44.1708 34.5693 44.3324 34.6344C44.4951 34.7004 44.6496 34.7803 44.7948 34.8759C44.9411 34.9705 45.0752 35.079 45.199 35.1993C45.6583 35.6133 46.1811 35.9298 46.7663 36.1496C47.3515 36.3695 47.9592 36.4769 48.5873 36.472C48.6661 36.472 48.7439 36.4641 48.8216 36.4493C48.8984 36.4345 48.9741 36.4129 49.0467 36.3833C49.1193 36.3547 49.1879 36.3192 49.2534 36.2768C49.3188 36.2344 49.3792 36.1871 49.4355 36.1329C49.4907 36.0796 49.5408 36.0215 49.5848 35.9584C49.6278 35.8953 49.6646 35.8282 49.6953 35.7582C49.725 35.6882 49.7485 35.6163 49.7639 35.5413C49.7792 35.4674 49.7864 35.3925 49.7864 35.3166C49.7864 35.2407 49.7792 35.1647 49.7639 35.0908C49.7485 35.0159 49.725 34.9439 49.6953 34.8739C49.6646 34.8039 49.6278 34.7369 49.5848 34.6738C49.5408 34.6107 49.4907 34.5525 49.4355 34.4993C49.3792 34.4451 49.3188 34.3977 49.2534 34.3554C49.1879 34.313 49.1193 34.2775 49.0467 34.2489C48.9741 34.2193 48.8984 34.1976 48.8216 34.1828C48.7439 34.168 48.6661 34.1611 48.5873 34.1611Z" fill="#F1F1F4"/>
</g>
<mask id="mask2_71_639" style="mask-type:luminance" maskUnits="userSpaceOnUse" x="38" y="11" width="12" height="15">
<path d="M38.762 11.1048H49.8019V25.2381H38.762V11.1048Z" fill="white"/>
</mask>
<g mask="url(#mask2_71_639)">
<path d="M44.3908 25.0557C44.5678 25.0557 44.7437 25.0468 44.9197 25.0311C45.0957 25.0143 45.2696 24.9887 45.4435 24.9561C45.6164 24.9226 45.7883 24.8812 45.9571 24.8319C46.1259 24.7826 46.2926 24.7254 46.4553 24.6594C46.619 24.5943 46.7786 24.5224 46.9341 24.4415C47.0906 24.3617 47.242 24.2739 47.3883 24.1793C47.5357 24.0846 47.6769 23.9831 47.8139 23.8756C47.95 23.7672 48.081 23.6528 48.2058 23.5326C48.3316 23.4123 48.4493 23.2861 48.5618 23.155C48.6743 23.0229 48.7787 22.8868 48.8769 22.7448C48.9751 22.6029 49.0662 22.457 49.149 22.3071C49.2329 22.1573 49.3086 22.0035 49.3762 21.8457C49.4437 21.689 49.503 21.5283 49.5542 21.3656C49.6053 21.202 49.6483 21.0373 49.6831 20.8707C49.7168 20.7031 49.7434 20.5355 49.7608 20.366C49.7782 20.1964 49.7864 20.0268 49.7864 19.8563C49.7864 17.3571 46.085 12.5767 45.3432 11.643C45.2849 11.576 45.2194 11.5159 45.1468 11.4626C45.0752 11.4094 44.9985 11.365 44.9156 11.3276C44.8338 11.2911 44.7478 11.2625 44.6598 11.2438C44.5708 11.225 44.4818 11.2152 44.3908 11.2152C44.2997 11.2152 44.2107 11.225 44.1217 11.2438C44.0337 11.2625 43.9478 11.2911 43.8659 11.3276C43.7831 11.365 43.7063 11.4094 43.6347 11.4626C43.5621 11.5159 43.4966 11.576 43.4383 11.643C42.6966 12.5767 38.9951 17.3571 38.9951 19.8563C38.9951 20.0268 39.0033 20.1964 39.0207 20.366C39.0381 20.5355 39.0637 20.7031 39.0984 20.8707C39.1332 21.0373 39.1762 21.202 39.2274 21.3656C39.2785 21.5283 39.3378 21.689 39.4054 21.8457C39.4729 22.0035 39.5486 22.1573 39.6325 22.3071C39.7154 22.457 39.8064 22.6029 39.9046 22.7448C40.0028 22.8868 40.1072 23.0229 40.2197 23.155C40.3323 23.2861 40.4499 23.4123 40.5758 23.5326C40.7006 23.6528 40.8315 23.7672 40.9676 23.8756C41.1047 23.9831 41.2459 24.0846 41.3932 24.1793C41.5395 24.2739 41.6909 24.3617 41.8474 24.4415C42.0029 24.5224 42.1625 24.5943 42.3262 24.6594C42.4889 24.7254 42.6556 24.7826 42.8245 24.8319C42.9933 24.8812 43.1651 24.9226 43.338 24.9561C43.5109 24.9887 43.6859 25.0143 43.8618 25.0311C44.0378 25.0468 44.2138 25.0557 44.3908 25.0557ZM44.3908 14.3098C45.8486 16.3131 47.3883 18.8162 47.3883 19.8563C47.3883 20.0456 47.3689 20.2339 47.3311 20.4192C47.2922 20.6055 47.2359 20.7859 47.1602 20.9614C47.0845 21.1369 46.9924 21.3035 46.883 21.4613C46.7735 21.619 46.6497 21.7649 46.5106 21.899C46.3714 22.0331 46.22 22.1523 46.0563 22.2578C45.8926 22.3633 45.7197 22.452 45.5376 22.525C45.3565 22.597 45.1683 22.6522 44.976 22.6896C44.7826 22.7261 44.5872 22.7448 44.3908 22.7448C44.1943 22.7448 43.9989 22.7261 43.8056 22.6896C43.6132 22.6522 43.425 22.597 43.2439 22.525C43.0618 22.452 42.8889 22.3633 42.7252 22.2578C42.5615 22.1523 42.4101 22.0331 42.271 21.899C42.1318 21.7649 42.008 21.619 41.8986 21.4613C41.7891 21.3035 41.697 21.1369 41.6213 20.9614C41.5456 20.7859 41.4894 20.6055 41.4505 20.4192C41.4126 20.2339 41.3932 20.0456 41.3932 19.8563C41.3932 18.8162 42.9329 16.3131 44.3908 14.3098Z" fill="#FFFFFF"/>
</g>
</svg>
