<svg width="144" height="120" viewBox="0 0 144 120" fill="none" xmlns="http://www.w3.org/2000/svg">
<mask id="mask0_71_655" style="mask-type:luminance" maskUnits="userSpaceOnUse" x="43" y="41" width="58" height="38">
<path d="M43.2007 41.1496H100.629V78.8571H43.2007V41.1496Z" fill="white"/>
</mask>
<g mask="url(#mask0_71_655)">
<path d="M99.7769 55.3951H80.5402C78.2478 48.6585 73.1385 41.9732 72.8215 41.5647C72.6273 41.3192 72.3728 41.1942 72.0581 41.1897H71.9376C71.6273 41.1964 71.3773 41.3214 71.1853 41.5647C70.8661 41.9732 65.7568 48.6585 63.4554 55.3951H44.2188C44.0871 55.3951 43.9599 55.4219 43.8394 55.471C43.7166 55.5223 43.6094 55.5938 43.5179 55.6875C43.4242 55.779 43.3527 55.8862 43.3014 56.0089C43.2523 56.1295 43.2255 56.2567 43.2255 56.3884V65.7232C43.2211 65.7545 43.2211 65.7835 43.2255 65.8125C43.2211 65.846 43.2211 65.8795 43.2255 65.9129V77.8571C43.2255 77.9888 43.2523 78.1161 43.3014 78.2366C43.3527 78.3594 43.4242 78.4665 43.5179 78.5603C43.6094 78.6518 43.7166 78.7232 43.8394 78.7746C43.9599 78.8259 44.0871 78.8504 44.2188 78.8504H99.7769C99.9086 78.8504 100.036 78.8259 100.156 78.7746C100.279 78.7232 100.386 78.6518 100.48 78.5603C100.571 78.4665 100.643 78.3594 100.694 78.2366C100.746 78.1161 100.77 77.9888 100.77 77.8571V56.3594C100.766 56.2299 100.739 56.1049 100.685 55.9888C100.634 55.8705 100.563 55.7656 100.469 55.6763C100.377 55.5871 100.27 55.5179 100.15 55.4688C100.031 55.4196 99.9063 55.3951 99.7769 55.3951ZM98.7858 57.3214V63.9688L98.6362 64.0379H98.567C97.9711 64.3304 97.3505 64.5513 96.7032 64.7009C96.0559 64.8527 95.4019 64.9263 94.7367 64.9263C94.0737 64.9263 93.4175 64.8527 92.7724 64.7009C92.1251 64.5513 91.5045 64.3304 90.9086 64.0379L90.8483 64.0179C90.1072 63.6406 89.3304 63.3571 88.5224 63.1629C87.7144 62.9688 86.8929 62.8728 86.0626 62.8728C85.23 62.8728 84.4086 62.9688 83.6005 63.1629C82.7925 63.3571 82.0157 63.6406 81.2746 64.0179L81.1853 64.067C81.4978 62.9621 81.6496 61.8326 81.6362 60.683C81.6251 59.5357 81.451 58.4107 81.1161 57.3103L98.7858 57.3214ZM88.5559 70.5558V71.5469C88.5023 71.7679 88.384 71.9487 88.2054 72.0893C88.0246 72.2299 87.8215 72.2991 87.5938 72.2991C87.3661 72.2991 87.163 72.2299 86.9844 72.0893C86.8036 71.9487 86.6876 71.7679 86.6318 71.5469V70.5558C86.6876 70.3348 86.8036 70.154 86.9844 70.0156C87.163 69.875 87.3661 69.8058 87.5938 69.8058C87.8215 69.8058 88.0246 69.875 88.2054 70.0156C88.384 70.154 88.5023 70.3348 88.5559 70.5558ZM77.4152 72.779V73.7701C77.4532 73.9174 77.4554 74.067 77.4242 74.2165C77.3907 74.3661 77.3282 74.5022 77.2344 74.6228C77.1407 74.7433 77.0246 74.8371 76.8885 74.904C76.7501 74.971 76.605 75.0045 76.4532 75.0045C76.2992 75.0045 76.1541 74.971 76.0179 74.904C75.8795 74.8371 75.7635 74.7433 75.6697 74.6228C75.576 74.5022 75.5135 74.3661 75.4822 74.2165C75.451 74.067 75.4532 73.9174 75.4911 73.7701V72.779C75.5447 72.558 75.663 72.3772 75.8416 72.2366C76.0224 72.0982 76.2255 72.0268 76.4532 72.0268C76.6809 72.0268 76.884 72.0982 77.0626 72.2366C77.2434 72.3772 77.3594 72.558 77.4152 72.779ZM64.3483 70.5558C64.4041 70.3348 64.5224 70.154 64.701 70.0156C64.8795 69.875 65.0827 69.8058 65.3103 69.8058C65.538 69.8058 65.7411 69.875 65.9219 70.0156C66.1005 70.154 66.2188 70.3348 66.2724 70.5558V71.5469C66.2188 71.7679 66.1005 71.9487 65.9219 72.0893C65.7411 72.2299 65.538 72.2991 65.3103 72.2991C65.0827 72.2991 64.8795 72.2299 64.701 72.0893C64.5224 71.9487 64.4041 71.7679 64.3483 71.5469V70.5558ZM55.1318 72.779V73.7701C55.076 73.9911 54.9599 74.1719 54.7791 74.3103C54.6005 74.4509 54.3974 74.5223 54.1697 74.5223C53.942 74.5223 53.7389 74.4509 53.5581 74.3103C53.3795 74.1719 53.2635 73.9911 53.2077 73.7701V72.779C53.2635 72.558 53.3795 72.3772 53.5581 72.2366C53.7389 72.0982 53.942 72.0268 54.1697 72.0268C54.3974 72.0268 54.6005 72.0982 54.7791 72.2366C54.9599 72.3772 55.076 72.558 55.1318 72.779ZM71.9978 43.6897C73.5559 45.8527 77.2568 51.3393 78.942 56.4978C78.942 56.596 79.0135 56.6964 79.0425 56.7857C79.826 59.3348 80.0336 61.7946 79.3103 63.7299C79.1139 64.2098 78.8527 64.6496 78.5269 65.0491C78.4822 65.0982 78.4353 65.1451 78.3885 65.1875C77.7389 65.8192 77.0001 66.3192 76.1764 66.6897C75.3505 67.0625 74.4867 67.2835 73.5849 67.3504H70.451C67.8103 66.9442 66.0447 66.0022 65.1117 64.4643V64.404C64.9755 64.183 64.8594 63.9531 64.7657 63.7098C63.9822 61.7857 64.2501 59.3147 65.0536 56.7656C65.0648 56.6942 65.0827 56.6228 65.1117 56.5558C66.73 51.3571 70.451 45.8616 71.9978 43.6897ZM45.1519 57.3214H62.8907C62.5291 58.4777 62.3527 59.6652 62.3639 60.8772C62.3728 62.0893 62.5693 63.2723 62.9487 64.4241C61.8148 64.8393 60.6429 65.0134 59.4353 64.9442C58.23 64.875 57.0849 64.5692 56.0045 64.0268C55.2612 63.6518 54.4867 63.3683 53.6764 63.1741C52.8661 62.9821 52.0447 62.8862 51.2121 62.8862C50.3795 62.8862 49.5603 62.9821 48.7501 63.1741C47.9398 63.3683 47.163 63.6518 46.4219 64.0268C46.009 64.2366 45.5804 64.4107 45.1407 64.5536L45.1519 57.3214Z" fill="white"/>
</g>
<path d="M71.3125 65.0692H71.4531C71.6696 65.0246 71.8527 64.9196 71.9977 64.7522C72.1451 64.5848 72.2277 64.3906 72.2433 64.1696C72.2589 63.9487 72.2076 63.7433 72.0848 63.558C71.9643 63.3705 71.7991 63.2411 71.5915 63.1652C71.029 63.1384 70.4955 63 69.9933 62.7478C69.4911 62.4955 69.0602 62.1518 68.7031 61.7165C68.4085 61.163 68.2366 60.5737 68.1897 59.9487C68.1406 59.3237 68.2187 58.7165 68.4263 58.125C68.4241 57.8951 68.3527 57.692 68.212 57.5134C68.0692 57.3348 67.8861 57.2188 67.6629 57.1652C67.4419 57.1116 67.2277 57.1339 67.0201 57.2299C66.8102 57.3259 66.6562 57.4755 66.5513 57.6786C66.2768 58.5335 66.1875 59.4063 66.2857 60.2991C66.3839 61.1897 66.6607 62.0246 67.1161 62.7969C67.6205 63.4598 68.2388 63.9911 68.9687 64.3862C69.7009 64.7835 70.4821 65.0112 71.3125 65.0692Z" fill="white"/>
</svg>
