<svg width="63" height="50" viewBox="0 0 63 50" fill="none" xmlns="http://www.w3.org/2000/svg">
<mask id="mask0_71_711" style="mask-type:luminance" maskUnits="userSpaceOnUse" x="14" y="9" width="34" height="32">
<path d="M14.396 9.7619H47.9538V40.2381H14.396V9.7619Z" fill="white"/>
</mask>
<g mask="url(#mask0_71_711)">
<path d="M31.1218 9.80096C31.0126 9.80282 30.9055 9.81492 30.7992 9.83631C30.693 9.85863 30.5897 9.89025 30.4902 9.9321C30.3898 9.97396 30.2952 10.0242 30.2054 10.0837C30.1165 10.1432 30.0335 10.2102 29.9582 10.2855C29.8819 10.3609 29.8143 10.4427 29.7554 10.5301C29.6965 10.6185 29.6463 10.7106 29.6067 10.8082C29.5661 10.9059 29.5362 11.0054 29.5169 11.1086C29.4966 11.2119 29.4879 11.316 29.4889 11.4202V27.3949H27.4156C26.9135 27.3949 26.4587 27.6851 26.2656 28.1343C26.2028 28.2831 26.1719 28.4384 26.1719 28.5928C26.1719 28.9044 26.2994 29.2104 26.5379 29.4382L30.2701 33.0329C30.7558 33.5007 31.5399 33.5007 32.0256 33.0329L35.7568 29.4382C36.1141 29.095 36.2203 28.5835 36.0291 28.1343C35.837 27.6851 35.3821 27.3949 34.879 27.3949H32.8058V11.4202C32.8078 11.3132 32.7981 11.2081 32.7778 11.103C32.7575 10.998 32.7257 10.8956 32.6842 10.7971C32.6426 10.6975 32.5905 10.6036 32.5297 10.5143C32.4679 10.426 32.3983 10.3432 32.3191 10.2679C32.2409 10.1925 32.155 10.1256 32.0633 10.066C31.9706 10.0074 31.8721 9.95721 31.7697 9.91722C31.6664 9.87723 31.5611 9.84747 31.452 9.82794C31.3429 9.8084 31.2328 9.7991 31.1218 9.80096ZM16.2046 9.80748C16.0395 9.80748 15.8782 9.83073 15.7208 9.87723C15.5625 9.92373 15.4157 9.9907 15.2786 10.08C15.1415 10.1683 15.0207 10.2744 14.9174 10.3981C14.8131 10.5218 14.7301 10.6566 14.6683 10.8036C14.6065 10.9514 14.5679 11.104 14.5524 11.2621C14.5379 11.4202 14.5476 11.5774 14.5814 11.7327C14.6152 11.888 14.6722 12.0359 14.7513 12.1745C14.8305 12.314 14.93 12.4395 15.0478 12.5502L19.538 16.8741V22.6023H17.4648C16.9617 22.6023 16.5069 22.8934 16.3147 23.3417C16.2519 23.4905 16.221 23.6458 16.221 23.8012C16.221 24.1118 16.3475 24.4178 16.587 24.6466L20.3182 28.2403C20.8049 28.7081 21.588 28.7081 22.0738 28.2403L25.8059 24.6466C26.1623 24.3025 26.2685 23.7909 26.0782 23.3417C25.8861 22.8934 25.4303 22.6023 24.9282 22.6023H22.855V16.2128C22.855 16.0007 22.8125 15.7971 22.7285 15.6017C22.6444 15.4055 22.5247 15.2334 22.3692 15.0837L17.3933 10.2911C17.2369 10.1367 17.0563 10.0177 16.8497 9.93303C16.643 9.84933 16.4286 9.80748 16.2046 9.80748ZM46.0418 9.80748C45.8265 9.81399 45.6208 9.85863 45.4228 9.94233C45.2258 10.026 45.052 10.1423 44.9023 10.2911L39.9264 15.0837C39.771 15.2334 39.6512 15.4055 39.5672 15.6017C39.4822 15.7971 39.4407 16.0007 39.4407 16.2128V22.6023H37.3675C36.8644 22.6023 36.4096 22.8934 36.2174 23.3417C36.1546 23.4905 36.1237 23.6458 36.1237 23.8012C36.1237 24.1118 36.2502 24.4178 36.4897 24.6466L40.2209 28.2403C40.7067 28.7081 41.4908 28.7081 41.9765 28.2403L45.7086 24.6466C46.065 24.3025 46.1712 23.7909 45.981 23.3417C45.7878 22.8934 45.333 22.6023 44.8309 22.6023H42.7577V16.8741L47.2469 12.5502C47.3666 12.4377 47.4671 12.3112 47.5472 12.1698C47.6274 12.0285 47.6834 11.8787 47.7172 11.7215C47.75 11.5634 47.7587 11.4044 47.7413 11.2444C47.7249 11.0844 47.6834 10.9301 47.6187 10.7812C47.554 10.6334 47.4671 10.4976 47.3589 10.3748C47.2517 10.252 47.1272 10.1469 46.9871 10.0595C46.8462 9.97303 46.6955 9.90792 46.5343 9.86514C46.373 9.82143 46.2088 9.80282 46.0418 9.80748ZM16.195 32.1652C16.0858 32.167 15.9787 32.1791 15.8724 32.2005C15.7662 32.2228 15.6629 32.2545 15.5625 32.2963C15.463 32.3382 15.3684 32.3884 15.2786 32.4479C15.1888 32.5074 15.1067 32.5744 15.0304 32.6497C14.9551 32.7251 14.8875 32.8069 14.8286 32.8943C14.7697 32.9827 14.7195 33.0748 14.6789 33.1724C14.6393 33.2701 14.6094 33.3696 14.5891 33.4728C14.5698 33.5761 14.5611 33.6802 14.5621 33.7844V36.9792C14.5621 38.7258 16.0665 40.1748 17.879 40.1748H44.4157C46.2291 40.1748 47.7336 38.7258 47.7336 36.9792V33.7844C47.7346 33.6793 47.7259 33.5742 47.7056 33.47C47.6853 33.3659 47.6544 33.2645 47.6138 33.1668C47.5723 33.0683 47.5221 32.9753 47.4622 32.886C47.4014 32.7976 47.3328 32.7158 47.2556 32.6404C47.1783 32.5651 47.0943 32.4981 47.0036 32.4386C46.9128 32.3791 46.8162 32.3289 46.7148 32.2879C46.6134 32.247 46.5092 32.2163 46.401 32.1959C46.2929 32.1745 46.1847 32.1642 46.0746 32.1642C45.9645 32.1642 45.8554 32.1745 45.7482 32.1959C45.6401 32.2163 45.5358 32.247 45.4344 32.2879C45.333 32.3289 45.2365 32.3791 45.1457 32.4386C45.0549 32.4981 44.9709 32.5651 44.8937 32.6404C44.8164 32.7158 44.7478 32.7976 44.687 32.886C44.6271 32.9753 44.5769 33.0683 44.5354 33.1668C44.4948 33.2645 44.4639 33.3659 44.4437 33.47C44.4234 33.5742 44.4147 33.6793 44.4157 33.7844V36.9792H17.879V33.7844C17.881 33.6775 17.8713 33.5724 17.851 33.4673C17.8298 33.3622 17.7989 33.2599 17.7574 33.1613C17.7149 33.0618 17.6637 32.9678 17.6019 32.8785C17.5411 32.7902 17.4706 32.7074 17.3924 32.6321C17.3141 32.5567 17.2282 32.4898 17.1355 32.4302C17.0438 32.3716 16.9453 32.3224 16.8429 32.2814C16.7396 32.2414 16.6343 32.2117 16.5252 32.1921C16.4161 32.1726 16.306 32.1633 16.195 32.1652Z" fill="white"/>
</g>
</svg>
