<svg width="87" height="64" viewBox="0 0 87 64" fill="none" xmlns="http://www.w3.org/2000/svg">
<mask id="mask0_71_704" style="mask-type:luminance" maskUnits="userSpaceOnUse" x="14" y="7" width="59" height="51">
<path d="M14.8115 7.41075H72.2937V57.5023H14.8115V7.41075Z" fill="white"/>
</mask>
<g mask="url(#mask0_71_704)">
<path d="M71.2876 38.6592H66.693C66.2938 37.3125 64.8886 36.3147 63.2204 36.3147C61.5522 36.3147 60.1469 37.3125 59.7478 38.6592H46.1877V35.4979C51.3515 35.1313 55.586 31.6421 56.2118 27.0894L57.8409 15.2705C57.8705 10.941 53.8383 7.41075 48.8768 7.41075H38.1191C35.7187 7.41075 33.4679 8.22516 31.7862 9.70003C30.0762 11.1808 29.1416 13.161 29.1551 15.2705L30.7842 27.0894C31.1065 29.4245 32.3917 31.5657 34.4038 33.1182C36.1893 34.5026 38.4361 35.3299 40.8096 35.4979V38.6592H27.2482C26.849 37.3125 25.4438 36.3147 23.7769 36.3147C22.1087 36.3147 20.7035 37.3125 20.3043 38.6592H15.7083C15.2134 38.6592 14.8115 39.0083 14.8115 39.4396V56.6256C14.8115 57.0581 15.2134 57.4071 15.7083 57.4071H71.2876C71.7839 57.4071 72.1844 57.0581 72.1844 56.6256V39.4396C72.1844 39.0083 71.7839 38.6592 71.2876 38.6592ZM42.6018 35.5344H44.3941V50.9212L43.4987 52.0929L42.6018 50.9212V35.5344ZM32.5643 26.9026L30.9474 15.1776C30.9608 13.5218 31.7066 11.9717 33.0539 10.8047C34.4011 9.62365 36.2001 8.97376 38.1191 8.97376H48.8768C52.8133 8.97376 56.0203 11.7531 56.0486 15.1776L54.433 26.9026C53.8774 30.9323 49.9476 33.9714 45.2909 33.9714H41.705C39.4448 33.9714 37.2763 33.2533 35.5946 31.9489C33.9102 30.6503 32.834 28.8581 32.5643 26.9026ZM70.3922 55.8453H16.6051V40.2211H21.0865C21.5814 40.2211 21.9833 39.872 21.9833 39.4396C21.9833 38.5781 22.7871 37.8777 23.7769 37.8777C24.7654 37.8777 25.5692 38.5781 25.5692 39.4396C25.5692 39.872 25.9711 40.2211 26.466 40.2211H40.8096V51.1574C40.8096 51.3114 40.8608 51.463 40.9593 51.5911L42.7529 53.9344C42.9188 54.1518 43.1979 54.2823 43.4987 54.2823C43.798 54.2823 44.0772 54.1518 44.2444 53.9344L46.0367 51.5911C46.1351 51.463 46.1877 51.3126 46.1877 51.1574V40.2211H60.5313C61.0262 40.2211 61.4268 39.872 61.4268 39.4396C61.4268 38.5781 62.2319 37.8777 63.2204 37.8777C64.2089 37.8777 65.0126 38.5781 65.0126 39.4396C65.0126 39.872 65.4145 40.2211 65.9095 40.2211H70.3922V55.8453Z" fill="white"/>
</g>
<path d="M24.2246 44.1274C22.4943 44.1274 21.0864 45.3543 21.0864 46.8609C21.0864 47.2934 21.4883 47.6424 21.9832 47.6424C22.4782 47.6424 22.88 47.2934 22.88 46.8609C22.88 46.2146 23.4829 45.6893 24.2246 45.6893C24.9663 45.6893 25.5691 46.2146 25.5691 46.8609C25.5691 47.5073 24.9663 48.0326 24.2246 48.0326C23.7297 48.0326 23.3278 48.3828 23.3278 48.8141C23.3278 49.2466 23.7297 49.5956 24.2246 49.5956C25.9548 49.5956 27.3627 48.3687 27.3627 46.8609C27.3627 45.3543 25.9548 44.1274 24.2246 44.1274Z" fill="white"/>
<path d="M55.7856 49.5004C55.4363 49.806 55.4363 50.3007 55.7856 50.6051C55.9542 50.752 56.0459 50.9483 56.0459 51.1574C56.0459 51.3678 55.9542 51.5641 55.7856 51.7098C55.4498 52.0036 54.8537 52.0036 54.5193 51.7098C54.1686 51.4054 53.6009 51.4054 53.2502 51.7098C52.901 52.0142 52.901 52.5101 53.2502 52.8145C53.7573 53.2564 54.433 53.4996 55.1518 53.4996C55.8719 53.4996 56.5475 53.2564 57.0533 52.8145C57.5603 52.3738 57.8395 51.785 57.8395 51.1574C57.8395 50.5311 57.5603 49.9411 57.0533 49.5004C56.704 49.196 56.1362 49.196 55.7856 49.5004Z" fill="white"/>
<path d="M41.8019 27.8204C42.3171 27.382 42.6016 26.7933 42.6016 26.1598C42.6016 24.8671 41.3946 23.8165 39.9126 23.8165H37.2235C36.7272 23.8165 36.3267 24.1655 36.3267 24.5968V30.0662C36.3267 30.4975 36.7272 30.8465 37.2235 30.8465C37.7184 30.8465 38.1189 30.4975 38.1189 30.0662V28.5032H39.9126C40.6394 28.5032 41.3164 28.2564 41.8019 27.8204ZM38.1189 25.3783H39.9126C40.4061 25.3783 40.8094 25.7285 40.8094 26.1598C40.8094 26.3678 40.7177 26.5606 40.5342 26.7169C40.3724 26.8603 40.1513 26.9413 39.9126 26.9413H38.1189V25.3783Z" fill="white"/>
<path d="M49.7736 23.8165C49.2786 23.8165 48.8767 24.1655 48.8767 24.5968V26.1598H46.1877V24.5968C46.1877 24.1655 45.7858 23.8165 45.2909 23.8165C44.7959 23.8165 44.394 24.1655 44.394 24.5968V30.0662C44.394 30.4975 44.7959 30.8465 45.2909 30.8465C45.7858 30.8465 46.1877 30.4975 46.1877 30.0662V27.7217H48.8767V30.0662C48.8767 30.4975 49.2786 30.8465 49.7736 30.8465C50.2685 30.8465 50.6704 30.4975 50.6704 30.0662V24.5968C50.6704 24.1655 50.2685 23.8165 49.7736 23.8165Z" fill="white"/>
<path d="M52.4557 21.566C52.4557 21.566 53.3525 15.0366 53.3485 14.9908C53.2123 12.9307 51.2487 11.3171 48.8766 11.3171H38.1189C35.7467 11.3171 33.7832 12.9307 33.647 14.9908C33.6443 15.0366 34.5397 21.566 34.5397 21.566C34.5937 21.9585 34.9767 22.2535 35.4298 22.2535H51.5656C52.0201 22.2535 52.4018 21.9585 52.4557 21.566ZM50.7713 20.6917H36.2255L35.4433 15.0166C35.5593 13.8121 36.7218 12.8789 38.1189 12.8789H48.8766C50.275 12.8789 51.4362 13.8121 51.5535 15.0166L50.7713 20.6917Z" fill="white"/>
<path d="M47.0848 15.2235C46.5899 15.2235 46.188 15.5725 46.188 16.0038V18.3483C46.188 18.7796 46.5899 19.1286 47.0848 19.1286C47.5797 19.1286 47.9803 18.7796 47.9803 18.3483V16.0038C47.9803 15.5725 47.5797 15.2235 47.0848 15.2235Z" fill="white"/>
<path d="M43.4989 14.442C43.0039 14.442 42.6021 14.791 42.6021 15.2235V18.3483C42.6021 18.7796 43.0039 19.1286 43.4989 19.1286C43.9938 19.1286 44.3943 18.7796 44.3943 18.3483V15.2235C44.3943 14.791 43.9938 14.442 43.4989 14.442Z" fill="white"/>
<path d="M39.9124 15.2235C39.4175 15.2235 39.0156 15.5725 39.0156 16.0038V18.3483C39.0156 18.7796 39.4175 19.1286 39.9124 19.1286C40.4074 19.1286 40.8092 18.7796 40.8092 18.3483V16.0038C40.8092 15.5725 40.4074 15.2235 39.9124 15.2235Z" fill="white"/>
<path d="M35.4298 45.2991C35.4298 45.4542 35.3961 45.6035 35.3273 45.7468C35.2599 45.8914 35.1628 46.0171 35.036 46.1276C34.9106 46.2369 34.765 46.3215 34.6004 46.3815C34.4345 46.4414 34.2633 46.4708 34.0853 46.4708C33.9072 46.4708 33.736 46.4414 33.5701 46.3815C33.4056 46.3215 33.2599 46.2369 33.1345 46.1276C33.0077 46.0171 32.9106 45.8914 32.8432 45.7468C32.7744 45.6035 32.7407 45.4542 32.7407 45.2991C32.7407 45.144 32.7744 44.9935 32.8432 44.8502C32.9106 44.7068 33.0077 44.5799 33.1345 44.4706C33.2599 44.3601 33.4056 44.2755 33.5701 44.2167C33.736 44.1568 33.9072 44.1274 34.0853 44.1274C34.2633 44.1274 34.4345 44.1568 34.6004 44.2167C34.765 44.2755 34.9106 44.3601 35.036 44.4706C35.1628 44.5799 35.2599 44.7068 35.3273 44.8502C35.3961 44.9935 35.4298 45.144 35.4298 45.2991Z" fill="white"/>
<path d="M32.7408 52.3291C32.7408 52.4854 32.7071 52.6347 32.6383 52.7781C32.5696 52.9214 32.4725 53.0484 32.3471 53.1588C32.2203 53.2681 32.076 53.3527 31.9101 53.4127C31.7456 53.4714 31.5743 53.502 31.3963 53.502C31.2183 53.502 31.0457 53.4714 30.8811 53.4127C30.7166 53.3527 30.571 53.2681 30.4455 53.1588C30.3188 53.0484 30.2217 52.9214 30.1543 52.7781C30.0855 52.6347 30.0518 52.4854 30.0518 52.3291C30.0518 52.174 30.0855 52.0248 30.1543 51.8814C30.2217 51.738 30.3188 51.6111 30.4455 51.5006C30.571 51.3913 30.7166 51.3067 30.8811 51.2468C31.0457 51.188 31.2183 51.1575 31.3963 51.1575C31.5743 51.1575 31.7456 51.188 31.9101 51.2468C32.076 51.3067 32.2203 51.3913 32.3471 51.5006C32.4725 51.6111 32.5696 51.738 32.6383 51.8814C32.7071 52.0248 32.7408 52.174 32.7408 52.3291Z" fill="white"/>
<path d="M53.3595 44.5176C53.3595 44.6727 53.3258 44.8232 53.257 44.9665C53.1882 45.1099 53.0911 45.2368 52.9657 45.3461C52.8389 45.4566 52.6933 45.5412 52.5288 45.6C52.3642 45.6599 52.193 45.6893 52.015 45.6893C51.8356 45.6893 51.6643 45.6599 51.4998 45.6C51.3353 45.5412 51.1896 45.4566 51.0642 45.3461C50.9374 45.2368 50.8403 45.1099 50.7716 44.9665C50.7041 44.8232 50.6704 44.6727 50.6704 44.5176C50.6704 44.3625 50.7041 44.2132 50.7716 44.0699C50.8403 43.9253 50.9374 43.7996 51.0642 43.6891C51.1896 43.5798 51.3353 43.4952 51.4998 43.4352C51.6643 43.3753 51.8356 43.3459 52.015 43.3459C52.193 43.3459 52.3642 43.3753 52.5288 43.4352C52.6933 43.4952 52.8389 43.5798 52.9657 43.6891C53.0911 43.7996 53.1882 43.9253 53.257 44.0699C53.3258 44.2132 53.3595 44.3625 53.3595 44.5176Z" fill="white"/>
<path d="M65.0123 46.8609C65.0123 47.0172 64.9786 47.1665 64.9098 47.3099C64.8424 47.4532 64.7453 47.5802 64.6185 47.6895C64.4931 47.7999 64.3475 47.8845 64.1829 47.9445C64.0184 48.0032 63.8458 48.0326 63.6678 48.0326C63.4898 48.0326 63.3185 48.0032 63.154 47.9445C62.9894 47.8845 62.8438 47.7999 62.717 47.6895C62.5916 47.5802 62.4945 47.4532 62.4257 47.3099C62.357 47.1665 62.3232 47.0172 62.3232 46.8609C62.3232 46.7058 62.357 46.5566 62.4257 46.4132C62.4945 46.2698 62.5916 46.1429 62.717 46.0324C62.8438 45.9231 62.9894 45.8385 63.154 45.7786C63.3185 45.7198 63.4898 45.6893 63.6678 45.6893C63.8458 45.6893 64.0184 45.7198 64.1829 45.7786C64.3475 45.8385 64.4931 45.9231 64.6185 46.0324C64.7453 46.1429 64.8424 46.2698 64.9098 46.4132C64.9786 46.5566 65.0123 46.7058 65.0123 46.8609Z" fill="white"/>
</svg>
