<svg width="58" height="49" viewBox="0 0 58 49" fill="none" xmlns="http://www.w3.org/2000/svg">
<mask id="mask0_71_662" style="mask-type:luminance" maskUnits="userSpaceOnUse" x="14" y="2" width="30" height="45">
<path d="M14.4854 2.0912H43.4854V46.2619H14.4854V2.0912Z" fill="white"/>
</mask>
<g mask="url(#mask0_71_662)">
<path d="M28.1294 31.1901V7.31473C28.1294 4.43774 25.7901 2.0984 22.9122 2.0984C20.0343 2.0984 17.695 4.43774 17.695 7.31473V31.1901C15.6739 32.7697 14.4854 35.1972 14.4854 37.8072C14.4854 42.4535 18.2659 46.234 22.9122 46.234C27.5585 46.234 31.3391 42.4535 31.3391 37.8072C31.3391 35.1972 30.1505 32.7697 28.1294 31.1901ZM22.9122 43.8273C19.5929 43.8273 16.8948 41.1265 16.8948 37.8099C16.8948 35.7861 17.8928 33.9178 19.5641 32.8111C19.9022 32.5872 20.1054 32.2105 20.1054 31.8078V7.31473C20.1054 5.76745 21.3649 4.50517 22.9149 4.50517C24.4658 4.50517 25.7254 5.76475 25.7254 7.31473V31.8078C25.7254 32.2105 25.9286 32.5872 26.2666 32.8111C27.938 33.9178 28.935 35.7825 28.935 37.8099C28.9323 41.1265 26.2315 43.8273 22.9122 43.8273ZM26.5228 37.8072C26.5228 39.7968 24.9009 41.4178 22.9122 41.4178C20.9199 41.4178 19.3016 39.7968 19.3016 37.8072C19.3016 36.2419 20.3112 34.9176 21.7084 34.4177V8.11489C21.7084 7.45049 22.2469 6.91195 22.9122 6.91195C23.5775 6.91195 24.1161 7.45049 24.1161 8.11489V34.4177C25.5132 34.9176 26.5228 36.2419 26.5228 37.8072ZM43.0646 12.4699C43.5087 12.9644 43.471 13.7232 42.9765 14.1682C42.0442 15.0125 40.8349 15.4746 39.5754 15.4746C36.7712 15.4746 34.4903 13.1937 34.4903 10.3895C34.4903 7.58534 36.7712 5.30533 39.5754 5.30533C40.8349 5.30533 42.0406 5.77015 42.9765 6.61167C43.471 7.0558 43.5123 7.8182 43.0646 8.31268C42.6178 8.80716 41.8581 8.84762 41.3645 8.40079C40.8727 7.95666 40.2344 7.71211 39.5727 7.71211C38.0955 7.71211 36.8944 8.91235 36.8944 10.3895C36.8944 11.8667 38.0955 13.0678 39.5727 13.0678C40.2371 13.0678 40.8727 12.8233 41.3645 12.3818C41.8554 11.9377 42.6205 11.9727 43.0646 12.4699ZM32.5429 2.70166C31.3274 2.70166 30.3357 3.69332 30.3357 4.90795C30.3357 6.12348 31.3274 7.11514 32.5429 7.11514C33.7576 7.11514 34.7492 6.12348 34.7492 4.90795C34.7492 3.69332 33.7576 2.70166 32.5429 2.70166ZM32.5429 5.9086C31.99 5.9086 31.5396 5.45817 31.5396 4.90525C31.5396 4.35233 31.99 3.90191 32.5429 3.90191C33.0958 3.90191 33.5463 4.35233 33.5463 4.90525C33.5463 5.45817 33.0958 5.9086 32.5429 5.9086Z" fill="white"/>
</g>
</svg>
